<svg width="24" height="24" xmlns="http://www.w3.org/2000/svg">

 <g>
  <title>background</title>
  <rect fill="none" id="canvas_background" height="402" width="582" y="-1" x="-1"/>
 </g>
 <g>
  <title>Layer 1</title>
  <path id="svg_1" fill="#118da8" d="m3.46447,20.5355c1.46446,1.4645 3.82148,1.4645 8.53553,1.4645c4.714,0 7.0711,0 8.5355,-1.4645c1.4645,-1.4644 1.4645,-3.8215 1.4645,-8.5355c0,-4.71405 0,-7.07107 -1.4645,-8.53553c-1.4644,-1.46447 -3.8215,-1.46447 -8.5355,-1.46447c-4.71405,0 -7.07107,0 -8.53553,1.46447c-1.46447,1.46446 -1.46447,3.82148 -1.46447,8.53553c0,4.714 0,7.0711 1.46447,8.5355zm15.28553,-4.5355c0,0.4142 -0.3358,0.75 -0.75,0.75l-12,0c-0.41421,0 -0.75,-0.3358 -0.75,-0.75c0,-0.4142 0.33579,-0.75 0.75,-0.75l12,0c0.4142,0 0.75,0.3358 0.75,0.75zm-0.75,-3.25c0.4142,0 0.75,-0.3358 0.75,-0.75c0,-0.4142 -0.3358,-0.75 -0.75,-0.75l-12,0c-0.41421,0 -0.75,0.3358 -0.75,0.75c0,0.4142 0.33579,0.75 0.75,0.75l12,0zm0.75,-4.75c0,0.41421 -0.3358,0.75 -0.75,0.75l-12,0c-0.41421,0 -0.75,-0.33579 -0.75,-0.75c0,-0.41421 0.33579,-0.75 0.75,-0.75l12,0c0.4142,0 0.75,0.33579 0.75,0.75z" clip-rule="evenodd" fill-rule="evenodd"/>
 </g>
</svg>